<svg width="71" height="96" viewBox="0 0 71 96" fill="none" xmlns="http://www.w3.org/2000/svg">
        <path fill-rule="evenodd" clip-rule="evenodd" d="M59.529 52.2631C59.5298 52.6872 59.4054 53.1019 59.1716 53.4549C58.9377 53.8078 58.605 54.0831 58.2155 54.2457C57.826 54.4084 57.3973 54.4512 56.9836 54.3686C56.5699 54.2861 56.1899 54.0819 55.8916 53.7821C55.5934 53.4822 55.3904 53.1 55.3083 52.6841C55.2262 52.2681 55.2688 51.837 55.4305 51.4453C55.5923 51.0536 55.866 50.7191 56.217 50.4839C56.568 50.2488 56.9805 50.1237 57.4022 50.1245C57.9663 50.1245 58.5072 50.3498 58.9061 50.7509C59.3049 51.1519 59.529 51.6959 59.529 52.2631Z" fill="#013855"></path>
        <path d="M57.9581 52.5982V52.9334H56.8828V52.8855C56.982 52.7658 57.0931 52.6142 57.2201 52.4266C57.3114 52.3004 57.3923 52.167 57.4621 52.0277C57.4926 51.9571 57.5088 51.8811 57.5097 51.8042C57.5109 51.7422 57.4882 51.6821 57.4462 51.6366C57.4274 51.6151 57.4042 51.5979 57.3782 51.5862C57.3522 51.5745 57.324 51.5686 57.2955 51.5688C57.1423 51.5836 57.0005 51.6564 56.8987 51.7723V51.4292C57.0327 51.3341 57.1911 51.28 57.355 51.2736C57.4914 51.2671 57.6255 51.3111 57.7319 51.3973C57.7782 51.4402 57.8147 51.4928 57.8387 51.5514C57.8626 51.61 57.8736 51.6731 57.8708 51.7364C57.8117 52.0599 57.6585 52.3585 57.4304 52.5942L57.9581 52.5982Z" fill="#013855"></path>
        <path fill-rule="evenodd" clip-rule="evenodd" d="M12.7574 52.2631C12.7574 52.686 12.6327 53.0995 12.399 53.4512C12.1653 53.8029 11.8331 54.077 11.4445 54.2388C11.0559 54.4007 10.6283 54.443 10.2157 54.3605C9.8032 54.278 9.42425 54.0743 9.12682 53.7752C8.82939 53.4762 8.62683 53.0951 8.54477 52.6803C8.46271 52.2654 8.50483 51.8354 8.6658 51.4447C8.82677 51.0539 9.09936 50.7199 9.4491 50.4849C9.79884 50.2499 10.21 50.1245 10.6307 50.1245C11.1947 50.1245 11.7356 50.3498 12.1345 50.7509C12.5333 51.1519 12.7574 51.6959 12.7574 52.2631Z" fill="#013855"></path>
        <path d="M10.7966 51.3057V52.9375H10.4355V51.3057H10.7966Z" fill="#013855"></path>
        <path fill-rule="evenodd" clip-rule="evenodd" d="M15.8437 32.9403C15.7881 33.431 15.308 40.6845 13.9788 44.2674C13.463 45.7915 12.7409 47.2079 11.3363 48.1136C9.35235 49.3904 7.28908 49.155 5.26947 48.3331C3.95871 47.7244 2.81952 46.7968 1.95492 45.6341C1.09032 44.4714 0.527601 43.1104 0.317643 41.674C-0.297368 38.1869 0.432709 34.987 3.09511 32.4774C5.00363 30.678 7.37241 30.1474 9.89197 30.4825C11.7172 30.6461 15.0263 31.8869 15.0263 31.8869C15.0263 31.8869 15.9072 1.23296 15.9707 0.227523C15.9905 -0.0397961 16.3238 -0.0717134 16.3278 0.191616C16.4031 6.47562 17.4189 32.8445 17.4189 32.8445C17.4189 32.8445 26.6758 37.7999 30.9491 40.102C32.072 40.7045 34.8416 42.0052 34.8416 42.0052C34.8416 42.0052 39.9997 38.2587 42.428 36.563C45.5745 34.3646 48.6178 32.4256 52.292 31.2286C55.9662 30.0317 59.9459 30.2312 63.6082 31.3004C65.9532 31.9867 68.0362 33.1796 69.5123 35.2544C71.7065 38.3385 71.2383 41.8775 68.9052 44.5507C66.7705 47.0005 63.9375 48.1775 60.8386 48.6523C55.7876 49.4223 50.8318 48.772 45.9276 47.4234C42.3566 46.4379 35.1312 43.258 35.1312 43.258C35.1312 43.258 27.2789 48.9316 24.1245 48.9595C21.4859 48.9595 19.5536 47.4832 18.4545 44.4988C17.3951 41.6222 17.0182 38.6018 16.7523 35.5616L16.5539 33.2435C16.5539 33.2435 16.0262 33.0201 15.8437 32.9522V32.9403ZM35.9763 42.5279C36.4287 42.7353 48.4115 48.3051 59.0135 47.2957C61.5764 47.2045 64.0729 46.4515 66.2626 45.1093C70.8137 42.2206 71.0796 37.0219 66.8261 33.842C64.6914 32.246 62.1798 31.6715 59.6007 31.3403C55.3274 30.7937 51.4429 32.0386 47.848 34.1851C44.9793 35.9007 37.25 41.5304 35.9763 42.5279ZM1.61115 36.3516C0.297801 40.118 2.0357 44.7302 5.10282 46.5656C7.88029 48.2293 11.1061 47.6428 12.606 44.1996C14.1336 40.6885 14.9509 32.5812 14.9509 32.5812C14.9509 32.5812 14.4113 32.3657 14.074 32.246C5.99955 29.3733 2.75388 33.0879 1.61115 36.3516ZM17.4824 33.5946C17.5181 33.814 17.6371 35.1267 17.7125 35.6972C18.1093 38.7136 18.5339 41.7259 19.9345 44.4749C21.0733 46.7212 22.6564 47.8224 25.176 47.196C27.7789 46.8329 32.3418 43.6889 33.9052 42.7074L17.4824 33.5946ZM15.8357 32.1383L16.546 32.4575L16.1095 23.2808L15.8357 32.1383Z" fill="#013855"></path>
        <path fill-rule="evenodd" clip-rule="evenodd" d="M25.736 52.2631C25.7368 52.687 25.6125 53.1016 25.3789 53.4545C25.1452 53.8074 24.8127 54.0826 24.4235 54.2454C24.0342 54.4081 23.6057 54.4511 23.1921 54.3689C22.7785 54.2867 22.3985 54.083 22.1001 53.7835C21.8017 53.484 21.5984 53.1022 21.5158 52.6865C21.4333 52.2708 21.4753 51.8398 21.6364 51.4481C21.7976 51.0563 22.0707 50.7215 22.4211 50.4859C22.7716 50.2503 23.1837 50.1245 23.6053 50.1245C24.1697 50.1245 24.7111 50.3497 25.1106 50.7506C25.51 51.1516 25.735 51.6955 25.736 52.2631Z" fill="#013855"></path>
        <path d="M23.5054 52.2391V51.9518C23.5348 51.9541 23.5644 51.9503 23.5924 51.9407C23.6204 51.9311 23.6461 51.9159 23.668 51.896C23.6868 51.8788 23.7018 51.8578 23.712 51.8345C23.7223 51.8111 23.7276 51.7859 23.7276 51.7603C23.7285 51.7343 23.7232 51.7084 23.7122 51.6848C23.7011 51.6612 23.6846 51.6406 23.6641 51.6247C23.6169 51.5867 23.5578 51.5669 23.4974 51.5688C23.3936 51.5728 23.2919 51.6001 23.1998 51.6486V51.3613C23.3178 51.3116 23.4449 51.2871 23.5728 51.2895C23.706 51.2843 23.8371 51.3236 23.9458 51.4012C23.9918 51.4333 24.0293 51.4763 24.0549 51.5264C24.0805 51.5765 24.0935 51.6322 24.0926 51.6885C24.0949 51.7689 24.073 51.848 24.0298 51.9157C23.9867 51.9833 23.9242 52.0362 23.8506 52.0675C23.9233 52.0958 23.9875 52.1426 24.0368 52.2033C24.0861 52.2641 24.1188 52.3368 24.1316 52.4141C24.1444 52.4915 24.1369 52.5709 24.1099 52.6444C24.0829 52.718 24.0373 52.7832 23.9775 52.8336C23.8578 52.9272 23.7084 52.974 23.5569 52.9653C23.4194 52.9657 23.2837 52.9343 23.1602 52.8735V52.5543C23.2577 52.6324 23.3769 52.6784 23.5014 52.686C23.5686 52.6887 23.6347 52.6675 23.6879 52.6261C23.711 52.6076 23.7295 52.5838 23.7419 52.5568C23.7543 52.5298 23.7602 52.5003 23.7593 52.4705C23.7602 52.4402 23.7543 52.4101 23.7419 52.3824C23.7295 52.3548 23.7111 52.3303 23.6879 52.3109C23.6383 52.2645 23.5731 52.2388 23.5054 52.2391Z" fill="#013855"></path>
        <path d="M8.16992 82.2307H9.63168V91.1794H14.2229V92.521H8.16992V82.2307Z" fill="#013855"></path>
        <path d="M18.5038 85.7121C18.9736 85.6984 19.4414 85.7797 19.8796 85.9514C20.3178 86.1231 20.7175 86.3815 21.0552 86.7116C21.3882 87.0354 21.6506 87.4257 21.8257 87.8577C22.0007 88.2898 22.0845 88.7539 22.0718 89.2205C22.083 89.6772 21.9969 90.131 21.8192 90.5511C21.6415 90.9713 21.3764 91.3479 21.0419 91.6555C20.338 92.3105 19.4073 92.6598 18.4506 92.6282C17.9859 92.6424 17.523 92.5624 17.0894 92.3931C16.6557 92.2237 16.2601 91.9684 15.9258 91.6421C15.6028 91.319 15.3463 90.9345 15.1713 90.5108C14.9963 90.0871 14.9062 89.6326 14.9062 89.1735C14.9062 88.7144 14.9963 88.2599 15.1713 87.8362C15.3463 87.4125 15.6028 87.028 15.9258 86.7049C16.2693 86.3759 16.674 86.1187 17.1165 85.9483C17.5589 85.7779 18.0304 85.6976 18.5038 85.7121ZM18.4307 86.9263C18.1403 86.9161 17.851 86.9669 17.5811 87.0755C17.3112 87.184 17.0665 87.3479 16.8626 87.5569C16.659 87.7715 16.5001 88.0251 16.3951 88.3028C16.2901 88.5804 16.2412 88.8765 16.2513 89.1735C16.2405 89.4668 16.2904 89.7591 16.398 90.0317C16.5055 90.3043 16.6683 90.5512 16.8759 90.7566C17.0899 90.9642 17.3432 91.1258 17.6207 91.2319C17.8982 91.3379 18.194 91.3862 18.4905 91.3738C18.7853 91.385 19.0794 91.3355 19.3547 91.2283C19.63 91.121 19.8808 90.9583 20.0917 90.7499C20.4995 90.3203 20.7271 89.7484 20.7271 89.1534C20.7271 88.5584 20.4995 87.9864 20.0917 87.5569C19.8696 87.3473 19.6082 87.1848 19.323 87.0788C19.0377 86.9728 18.7343 86.9255 18.4307 86.9397V86.9263Z" fill="#013855"></path>
        <path d="M23.2025 88.0873C23.191 87.761 23.2561 87.4366 23.3923 87.1405C23.5285 86.8444 23.7321 86.585 23.9865 86.3834C24.6092 85.9371 25.3634 85.7172 26.1259 85.7596H28.8966V86.806H27.5345C27.7569 87.0176 27.9432 87.2646 28.086 87.5372C28.1908 87.7781 28.2429 88.0389 28.2388 88.3019C28.2351 88.6696 28.1317 89.0292 27.9398 89.3417C27.7557 89.6671 27.4898 89.9378 27.1691 90.1266C26.6838 90.3599 26.1624 90.5074 25.6276 90.5626C25.1227 90.6341 24.8702 90.8085 24.8702 91.0858C24.8768 91.1712 24.9071 91.253 24.9577 91.3218C25.0082 91.3906 25.0769 91.4437 25.1559 91.4749C25.4812 91.6186 25.8226 91.7222 26.1725 91.7835C26.7114 91.8874 27.2422 92.0309 27.7605 92.2128C28.0092 92.3138 28.2351 92.4643 28.4249 92.6555C28.5837 92.8151 28.7086 93.0056 28.792 93.2155C28.8754 93.4254 28.9155 93.6503 28.9099 93.8764C28.9135 94.1861 28.837 94.4914 28.6878 94.762C28.5387 95.0326 28.322 95.2592 28.0594 95.4193C27.3567 95.8003 26.5715 95.9998 25.7738 95.9998C24.9761 95.9998 24.1909 95.8003 23.4882 95.4193C23.2229 95.26 23.004 95.0328 22.8535 94.7607C22.703 94.4886 22.6263 94.1813 22.6311 93.8697C22.6311 92.9507 23.1892 92.3604 24.3121 92.092C23.8669 91.8036 23.6476 91.5151 23.6476 91.2334C23.6493 91.1198 23.6758 91.008 23.7251 90.906C23.7745 90.8039 23.8456 90.7142 23.9333 90.6431C24.1551 90.4482 24.4228 90.3143 24.7107 90.254C24.2627 90.1034 23.8745 89.8116 23.603 89.4216C23.3315 89.0315 23.1911 88.5638 23.2025 88.0873ZM25.3818 92.8434C24.9971 92.8284 24.6163 92.9263 24.2855 93.1251C24.1575 93.2005 24.051 93.3081 23.9765 93.4374C23.9019 93.5667 23.8619 93.7134 23.8602 93.863C23.8602 94.5338 24.4782 94.9095 25.7273 94.9095C26.1977 94.9338 26.667 94.8441 27.096 94.6479C27.2395 94.5862 27.3619 94.4834 27.4481 94.3523C27.5343 94.2211 27.5805 94.0674 27.581 93.9099C27.581 93.5947 27.3751 93.3398 26.9698 93.1385C26.4689 92.9216 25.9263 92.8207 25.3818 92.8434ZM25.7007 86.9066C25.5301 86.9023 25.3604 86.9327 25.2017 86.9961C25.043 87.0595 24.8986 87.1546 24.7772 87.2756C24.6565 87.3885 24.5605 87.5255 24.4953 87.678C24.4301 87.8305 24.3971 87.995 24.3985 88.1611C24.3949 88.3239 24.4263 88.4855 24.4905 88.6349C24.5547 88.7843 24.6503 88.9179 24.7705 89.0264C25.0287 89.2604 25.3673 89.3832 25.714 89.3685C26.0593 89.3796 26.3954 89.2545 26.6508 89.0197C26.7728 88.9108 26.8699 88.7764 26.9353 88.6258C27.0007 88.4752 27.0329 88.312 27.0296 88.1477C27.0322 87.9808 26.9991 87.8153 26.9326 87.6624C26.8661 87.5096 26.7677 87.3731 26.6442 87.2622C26.3881 87.0233 26.0492 86.8956 25.7007 86.9066Z" fill="#013855"></path>
        <path d="M30.6035 82.8879C30.814 82.8871 31.0165 82.9689 31.1683 83.116C31.2694 83.2299 31.3363 83.3706 31.3611 83.5215C31.3859 83.6724 31.3676 83.8273 31.3083 83.9681C31.249 84.1088 31.1513 84.2297 31.0265 84.3164C30.9017 84.4031 30.755 84.4521 30.6035 84.4577C30.5021 84.4577 30.4018 84.4362 30.309 84.3946C30.2163 84.353 30.1333 84.2922 30.0654 84.2162C29.9903 84.1445 29.9304 84.0582 29.8893 83.9625C29.8481 83.8668 29.8267 83.7637 29.8262 83.6594C29.8264 83.556 29.8478 83.4538 29.8889 83.3592C29.9301 83.2645 29.9902 83.1795 30.0654 83.1093C30.1351 83.0369 30.2189 82.9798 30.3115 82.9417C30.4041 82.9036 30.5036 82.8853 30.6035 82.8879ZM29.9391 85.7456H31.268V92.5208H29.9391V85.7456Z" fill="#013855"></path>
        <path d="M32.8672 92.0372V90.5882C33.2278 90.8528 33.6154 91.0777 34.0233 91.2591C34.3332 91.401 34.6668 91.4829 35.0066 91.5006C35.2604 91.5079 35.5105 91.4377 35.7242 91.2993C35.8118 91.2491 35.8852 91.1772 35.9375 91.0903C35.9899 91.0034 36.0194 90.9045 36.0232 90.8029C36.0255 90.7124 36.0096 90.6223 35.9765 90.5381C35.9434 90.454 35.8937 90.3775 35.8305 90.3132C35.5729 90.0948 35.2921 89.9058 34.9933 89.7497C34.3654 89.4415 33.7963 89.0236 33.3123 88.5154C33.0559 88.1993 32.9151 87.8037 32.9137 87.3951C32.9082 87.1497 32.9601 86.9064 33.0652 86.6849C33.1702 86.4635 33.3255 86.2702 33.5183 86.1206C33.9613 85.7787 34.5094 85.6053 35.0664 85.6309C35.7656 85.6513 36.4496 85.8423 37.0597 86.1877V87.5293C36.4861 87.1222 35.8175 86.8725 35.1196 86.8048C34.8996 86.7973 34.6823 86.8557 34.495 86.9725C34.4227 87.0208 34.3635 87.0866 34.3228 87.164C34.2822 87.2413 34.2614 87.3277 34.2625 87.4153C34.2658 87.5008 34.2864 87.5848 34.323 87.6621C34.3595 87.7393 34.4113 87.8083 34.4751 87.8647C34.7067 88.0662 34.9609 88.2396 35.2325 88.3812L35.7043 88.6496C36.8272 89.2869 37.3853 89.9912 37.3853 90.7761C37.3853 91.0364 37.3252 91.2932 37.2099 91.5261C37.0946 91.7589 36.9271 91.9615 36.7208 92.1177C36.2473 92.4891 35.6589 92.6792 35.0598 92.6544C34.6993 92.657 34.34 92.6142 33.99 92.5269C33.6041 92.3925 33.2287 92.2288 32.8672 92.0372Z" fill="#013855"></path>
        <path d="M38.0098 86.8191L40.508 84.3438V85.7458H42.6275V86.9532H40.508V90.2671C40.508 91.0452 40.8269 91.4343 41.4648 91.4343C42.0016 91.4146 42.5231 91.2476 42.973 90.9513V92.2057C42.4618 92.4951 41.8848 92.6454 41.2987 92.6418C40.7453 92.6587 40.2054 92.4675 39.7838 92.1051C39.6604 92.0002 39.5549 91.8755 39.4715 91.7361C39.3743 91.5714 39.3027 91.3927 39.2589 91.2062C39.1907 90.7941 39.164 90.376 39.1792 89.9585V86.9532H38.0098V86.8191Z" fill="#013855"></path>
        <path d="M44.6126 82.8879C44.823 82.8871 45.0255 82.9689 45.1773 83.116C45.2784 83.2299 45.3453 83.3706 45.3701 83.5215C45.3949 83.6724 45.3766 83.8273 45.3173 83.9681C45.258 84.1088 45.1603 84.2297 45.0355 84.3164C44.9107 84.4031 44.764 84.4521 44.6126 84.4577C44.5111 84.4577 44.4108 84.4362 44.318 84.3946C44.2253 84.353 44.1423 84.2922 44.0744 84.2162C44.0002 84.1442 43.9413 84.0577 43.9013 83.9619C43.8613 83.8662 43.8411 83.7633 43.8418 83.6594C43.8408 83.5564 43.861 83.4544 43.901 83.3597C43.941 83.2651 44.0001 83.1798 44.0744 83.1093C44.1441 83.0369 44.2279 82.9798 44.3205 82.9417C44.4131 82.9036 44.5126 82.8853 44.6126 82.8879ZM43.9481 85.7456H45.277V92.5208H43.9481V85.7456Z" fill="#013855"></path>
        <path d="M52.9309 89.2473H48.2068C48.211 89.5371 48.2719 89.8231 48.3859 90.089C48.4999 90.3549 48.6649 90.5955 48.8712 90.7969C49.077 90.9901 49.3185 91.1405 49.5818 91.2395C49.8451 91.3385 50.1252 91.3841 50.4061 91.3738C51.2823 91.3753 52.1346 91.0854 52.8312 90.5487V91.8568C52.4582 92.1153 52.0482 92.3143 51.6153 92.4471C51.1547 92.5762 50.678 92.6372 50.2001 92.6282C49.5689 92.6582 48.9434 92.4945 48.4061 92.1587C47.9425 91.8426 47.5654 91.4134 47.3098 90.9109C47.0239 90.3494 46.8823 89.7243 46.8979 89.093C46.8582 88.1729 47.1698 87.2725 47.7683 86.5774C48.0512 86.2603 48.3994 86.0094 48.7885 85.8425C49.1776 85.6757 49.5982 85.5968 50.0207 85.6115C50.4235 85.5945 50.8248 85.6702 51.1943 85.8329C51.5638 85.9956 51.8918 86.241 52.1535 86.5506C52.7136 87.2685 52.9968 88.167 52.9508 89.0796L52.9309 89.2473ZM48.2334 88.449H51.6153C51.6132 87.9899 51.4428 87.5478 51.1369 87.208C50.9876 87.0601 50.8096 86.945 50.6141 86.8699C50.4185 86.7949 50.2097 86.7615 50.0008 86.772C49.787 86.7635 49.5737 86.7977 49.3731 86.8725C49.1724 86.9473 48.9884 87.0613 48.8314 87.208C48.5026 87.5443 48.2925 87.9803 48.2334 88.449Z" fill="#013855"></path>
        <path d="M54.3652 82.7729H55.6941V93.0633H54.3652V82.7729ZM58.7372 86.288H60.3119L57.4482 89.6086L60.8966 93.07H59.1159L55.7539 89.6086L58.7372 86.288Z" fill="#013855"></path>
        <path d="M5.53125 66.3789H14.0492V67.7205H10.4945V76.7162H9.02613V67.6937H5.53125V66.3789Z" fill="#013855"></path>
        <path d="M16.2207 69.8814C16.6905 69.8676 17.1583 69.949 17.5965 70.1207C18.0347 70.2923 18.4344 70.5508 18.7721 70.8809C19.1039 71.2052 19.3651 71.5958 19.539 72.0278C19.7129 72.4598 19.7956 72.9236 19.782 73.3897C19.7946 73.8466 19.7091 74.3008 19.5313 74.7212C19.3535 75.1415 19.0877 75.518 18.7521 75.8248C18.0494 76.4816 17.1179 76.8313 16.1609 76.7975C15.6963 76.8102 15.2339 76.7295 14.8005 76.5602C14.367 76.3909 13.9712 76.1364 13.6361 75.8114C13.3063 75.4967 13.046 75.1155 12.872 74.6924C12.6979 74.2694 12.6142 73.8141 12.6261 73.3562C12.6142 72.8931 12.6992 72.4327 12.8755 72.005C13.0518 71.5773 13.3155 71.192 13.6493 70.8742C13.9921 70.5459 14.3957 70.2893 14.8369 70.1189C15.2782 69.9485 15.7484 69.8678 16.2207 69.8814ZM16.1476 71.0955C15.8571 71.0846 15.5676 71.135 15.2976 71.2436C15.0276 71.3522 14.783 71.5165 14.5795 71.7261C14.3747 71.9399 14.2149 72.1934 14.1099 72.4712C14.0048 72.7491 13.9566 73.0456 13.9683 73.3428C13.9574 73.636 14.0073 73.9283 14.1149 74.201C14.2224 74.4736 14.3852 74.7205 14.5928 74.9259C15.035 75.3252 15.6075 75.546 16.2007 75.546C16.794 75.546 17.3665 75.3252 17.8087 74.9259C18.2179 74.4971 18.4466 73.9248 18.4466 73.3294C18.4466 72.7339 18.2179 72.1616 17.8087 71.7328C17.588 71.5208 17.327 71.3563 17.0414 71.249C16.7559 71.1418 16.4519 71.0941 16.1476 71.109V71.0955Z" fill="#013855"></path>
        <path d="M21.2012 80.1509V69.9142H23.5267C24.5339 69.8472 25.5288 70.1685 26.3106 70.8131C26.6479 71.1323 26.9114 71.5226 27.0825 71.9562C27.2536 72.3898 27.3281 72.8561 27.3006 73.322C27.3172 73.782 27.2429 74.2408 27.082 74.6715C26.9212 75.1022 26.677 75.4963 26.3638 75.8308C26.0565 76.1538 25.6853 76.408 25.2743 76.5767C24.8634 76.7454 24.4219 76.825 23.9785 76.8102C23.4914 76.799 23.0101 76.7014 22.5566 76.5218V80.1509H21.2012ZM23.5001 71.162H22.53V75.3344C22.9258 75.543 23.3659 75.6512 23.8124 75.6497C24.0999 75.6558 24.3854 75.5991 24.6492 75.4833C24.913 75.3675 25.1489 75.1954 25.3406 74.9789C25.6608 74.5828 25.8607 74.1016 25.9161 73.5933C25.9715 73.0851 25.8801 72.5715 25.6528 72.1145C25.483 71.7923 25.2152 71.5336 24.8887 71.3766C24.4351 71.2046 23.9505 71.1314 23.4669 71.162H23.5001Z" fill="#013855"></path>
        <path d="M28.4043 76.2066V74.7577C28.7616 75.0236 29.1471 75.2486 29.5538 75.4285C29.8657 75.5714 30.2016 75.6533 30.5438 75.67C30.7954 75.6763 31.043 75.6062 31.2547 75.4687C31.3423 75.4185 31.4157 75.3466 31.468 75.2597C31.5203 75.1728 31.5498 75.0739 31.5537 74.9723C31.556 74.8818 31.5401 74.7917 31.507 74.7076C31.4738 74.6234 31.4242 74.5469 31.361 74.4826C31.0978 74.2582 30.8103 74.0647 30.5039 73.9057C29.877 73.5956 29.3083 73.1779 28.8229 72.6714C28.5664 72.3553 28.4256 71.9597 28.4242 71.5511C28.4203 71.3059 28.4729 71.0632 28.5779 70.842C28.6828 70.6208 28.8372 70.4272 29.0289 70.2766C29.4719 69.9347 30.02 69.7613 30.577 69.7869C31.2875 69.8019 31.9834 69.9931 32.6035 70.3437V71.6853C32.0316 71.2795 31.3656 71.03 30.67 70.9608C30.4498 70.9517 30.232 71.0101 30.0454 71.1285C29.971 71.175 29.9098 71.2403 29.8678 71.3179C29.8259 71.3956 29.8047 71.4829 29.8062 71.5713C29.8174 71.7431 29.8935 71.904 30.0189 72.0207C30.2505 72.2222 30.5047 72.3956 30.7763 72.5372L31.248 72.8056C32.3709 73.4428 32.929 74.1472 32.929 74.9321C32.929 75.1924 32.869 75.4492 32.7537 75.6821C32.6384 75.9149 32.4709 76.1175 32.2646 76.2737C31.7911 76.6451 31.2026 76.8352 30.6035 76.8104C30.2453 76.8134 29.8881 76.7706 29.5405 76.6829C29.1495 76.5557 28.7695 76.3964 28.4043 76.2066Z" fill="#013855"></path>
        <path d="M40.2007 73.4165H35.4766C35.4888 74.0009 35.7273 74.5572 36.1411 74.9661C36.3462 75.1602 36.5875 75.3112 36.851 75.4102C37.1145 75.5093 37.3949 75.5544 37.6759 75.543C38.5521 75.5445 39.4044 75.2545 40.101 74.7179V76.026C39.7281 76.2844 39.318 76.4835 38.8851 76.6163C38.4243 76.7444 37.9478 76.8054 37.4699 76.7974C36.8387 76.8273 36.2133 76.6636 35.6759 76.3278C35.2123 76.0118 34.8352 75.5826 34.5796 75.0801C34.2914 74.5191 34.1475 73.894 34.1611 73.2622C34.1248 72.3426 34.4359 71.4434 35.0315 70.7466C35.3156 70.4293 35.665 70.1784 36.0552 70.0115C36.4454 69.8447 36.867 69.7659 37.2905 69.7806C37.6922 69.7647 38.0922 69.8409 38.4605 70.0035C38.8288 70.1662 39.1557 70.4111 39.4167 70.7198C39.9767 71.4376 40.26 72.3362 40.214 73.2488L40.2007 73.4165ZM35.5098 72.6182H38.8851C38.8855 72.1598 38.7174 71.7176 38.4134 71.3772C38.2636 71.2299 38.0855 71.1152 37.8901 71.0402C37.6947 70.9652 37.4861 70.9315 37.2772 70.9412C36.8438 70.9252 36.4214 71.0818 36.1012 71.3772C35.7768 71.7158 35.5694 72.151 35.5098 72.6182Z" fill="#013855"></path>
        <path d="M46.6777 75.1063V76.4479C46.041 76.6929 45.3658 76.8202 44.6844 76.8236C44.2238 76.8563 43.7616 76.7889 43.329 76.626C42.8963 76.463 42.5033 76.2083 42.1765 75.879C41.8497 75.5496 41.5966 75.1534 41.4344 74.7169C41.2721 74.2804 41.2045 73.8139 41.2361 73.3487C41.1901 72.4023 41.5174 71.4761 42.1463 70.7728C42.4536 70.446 42.8267 70.1895 43.2404 70.0205C43.6542 69.8516 44.099 69.7741 44.5449 69.7934C44.8578 69.79 45.17 69.8238 45.4751 69.894C45.8273 69.983 46.17 70.1065 46.4983 70.263V71.6918C45.9498 71.2925 45.2998 71.0598 44.6246 71.021C44.3485 71.0113 44.0736 71.0635 43.8198 71.1736C43.5659 71.2838 43.3393 71.4493 43.1562 71.6583C42.7629 72.1036 42.5558 72.6854 42.5782 73.2817C42.5629 73.5855 42.6105 73.8891 42.7181 74.1733C42.8256 74.4574 42.9907 74.7158 43.2028 74.9319C43.4284 75.1417 43.6934 75.3038 43.9821 75.4087C44.2708 75.5135 44.5774 75.559 44.8838 75.5423C45.5057 75.5277 46.1173 75.379 46.6777 75.1063Z" fill="#013855"></path>
        <path d="M47.2402 70.9875L49.7651 68.5391V69.9411H51.8912V71.1485H49.7651V74.4623C49.7651 75.2405 50.084 75.6296 50.7218 75.6296C51.259 75.6116 51.7809 75.4445 52.2301 75.1466V76.401C51.7218 76.6919 51.1466 76.8423 50.5624 76.837C50.0067 76.8557 49.4641 76.6643 49.0408 76.3004C48.9192 76.1937 48.814 76.0693 48.7285 75.9314C48.6338 75.7663 48.5644 75.5876 48.5226 75.4015C48.4476 74.9902 48.4186 74.5716 48.4362 74.1538V71.1485H47.2402V70.9875Z" fill="#013855"></path>
        <path d="M56.4146 69.8815C56.8834 69.8675 57.3503 69.9488 57.7874 70.1205C58.2246 70.2922 58.6231 70.5508 58.9593 70.881C59.2924 71.2048 59.5548 71.5951 59.7299 72.0271C59.9049 72.4592 59.9887 72.9233 59.9759 73.3899C59.9872 73.8466 59.9011 74.3004 59.7234 74.7205C59.5457 75.1407 59.2806 75.5173 58.9461 75.8249C58.2433 76.4818 57.3119 76.8314 56.3548 76.7976C55.8901 76.811 55.4275 76.7307 54.994 76.5614C54.5604 76.3921 54.1647 76.1372 53.83 75.8115C53.4994 75.4972 53.238 75.1162 53.0629 74.6932C52.8877 74.2702 52.8027 73.8147 52.8134 73.3563C52.8027 72.8928 52.889 72.4322 53.0664 72.0045C53.2439 71.5769 53.5086 71.1918 53.8433 70.8743C54.1856 70.5455 54.5891 70.2884 55.0305 70.118C55.4718 69.9476 55.9423 69.8672 56.4146 69.8815ZM56.3415 71.0957C56.0511 71.0847 55.7615 71.1351 55.4915 71.2437C55.2215 71.3523 54.9769 71.5167 54.7735 71.7263C54.5678 71.9397 54.407 72.193 54.3008 72.4708C54.1946 72.7486 54.1452 73.0453 54.1555 73.3429C54.146 73.6366 54.1971 73.9291 54.3058 74.2017C54.4145 74.4743 54.5783 74.721 54.7867 74.9261C55.2289 75.3254 55.8014 75.5461 56.3947 75.5461C56.9879 75.5461 57.5604 75.3254 58.0026 74.9261C58.2092 74.7172 58.3713 74.4677 58.4787 74.1931C58.5861 73.9185 58.6366 73.6246 58.6271 73.3295C58.6335 73.0312 58.5777 72.7349 58.4632 72.4599C58.3487 72.1848 58.1782 71.9371 57.9627 71.733C57.7428 71.5218 57.4829 71.3577 57.1986 71.2505C56.9143 71.1433 56.6115 71.0952 56.3083 71.1091L56.3415 71.0957Z" fill="#013855"></path>
        <path d="M62.8398 69.9139V71.4635L62.9129 71.3495C63.5773 70.303 64.1952 69.7798 64.8397 69.7798C65.4312 69.8325 65.9815 70.1078 66.3812 70.5512L65.7168 71.7252C65.3858 71.3461 64.9256 71.1066 64.4278 71.0543C64.2075 71.0604 63.9918 71.1196 63.7988 71.227C63.6058 71.3344 63.441 71.4867 63.3182 71.6715C63.0028 72.0942 62.8367 72.6114 62.8464 73.1406V76.6825H61.5176V69.9072L62.8398 69.9139Z" fill="#013855"></path>
        </svg>