<svg xmlns="http://www.w3.org/2000/svg" width="271" height="125" viewBox="0 0 271 125">
  <path d="M165.4,78.7v-8.4c0-1.35-.77-2.03-2.31-2.03h-8.86c-4.55,0-7.78-.98-9.69-2.95-1.85-2.03-2.77-4.92-2.77-8.67v-12.18c0-7.63,4.49-11.44,13.47-11.44h12.64c8.98,0,13.47,3.81,13.47,11.44v7.1h-16.15v-4.98c0-1.35-.77-2.03-2.31-2.03h-2.68c-1.54,0-2.31.68-2.31,2.03v8.76c0,1.35.77,2.03,2.31,2.03h8.67c4.55,0,7.78.95,9.69,2.86,1.97,1.91,2.95,4.71,2.95,8.4v12.18c0,7.63-4.49,11.44-13.47,11.44h-12.55c-9.04,0-13.56-3.81-13.56-11.44v-7.1h16.15v4.98c0,1.35.77,2.03,2.31,2.03h2.68c1.54,0,2.31-.68,2.31-2.03h.01Z" fill="#97bf42"/>
  <path d="M2.94,69.59c-3.92-3.92-3.92-10.27,0-14.18L35.88,22.47c3.92-3.92,10.27-3.92,14.18,0l32.94,32.94c3.92,3.92,3.92,10.27,0,14.18l-32.94,32.94c-3.92,3.92-10.27,3.92-14.18,0,0,0-32.94-32.94-32.94-32.94ZM20.44,62.5l22.54,22.54,22.54-22.54-22.54-22.54-22.54,22.54Z" fill="#26538c" fill-rule="evenodd"/>
  <path d="M44.25,65.34c-1.57-1.57-1.57-4.11,0-5.67l39.57-39.57c1.57-1.57,4.11-1.57,5.67,0l39.57,39.57c1.57,1.57,1.57,4.11,0,5.67l-39.57,39.57c-1.57,1.57-4.11,1.57-5.67,0l-39.57-39.57Z" fill="#f0f0f0"/>
  <path d="M204.17,80.73h20.21v11.53h-36.35v-59.23h35.52v11.53h-19.38v12.09h16.7v11.53h-16.7v12.55h0Z" fill="#97bf42"/>
  <path d="M254.28,55.26v-9.6c0-1.35-.77-2.03-2.31-2.03h-6.64v13.65h6.64c1.54,0,2.31-.68,2.31-2.03h0ZM254.28,79.62v-9.69c0-1.35-.77-2.03-2.31-2.03h-6.64v13.75h6.64c1.54,0,2.31-.68,2.31-2.03ZM229.47,33.03h27.13c9.04,0,13.56,3.81,13.56,11.44v7.57c0,5.35-1.48,8.83-4.43,10.43,1.72.74,2.89,1.88,3.51,3.41.61,1.48.92,3.51.92,6.09v8.86c0,7.63-4.52,11.44-13.56,11.44h-27.13v-59.23h0Z" fill="#97bf42"/>
  <path d="M53.44,50.48l12.3-12.3,17.26,17.23s2.89,3.11,2.89,7.09-2.94,7.09-2.94,7.09l-17.22,17.22-12.29-12.29,12.02-12.02s-12.02-12.02-12.02-12.02Z" fill="#97bf42" fill-rule="evenodd"/>
</svg>
